<mxfile host="app.diagrams.net" modified="2024-04-21T14:52:04.390Z" agent="Mozilla/5.0 (Macintosh; Intel Mac OS X 10_15_7) AppleWebKit/537.36 (KHTML, like Gecko) Chrome/124.0.0.0 Safari/537.36" version="24.2.7" etag="47FIwPfYNEejOVHuD5vE" type="github">
  <diagram name="Page-1" id="Q9FLmXQQaFCqG4w_zdho">
    <mxGraphModel>
      <root>
        <mxCell id="0" />
        <mxCell id="1" parent="0" />
      </root>
    </mxGraphModel>
  </diagram>
</mxfile>
